#!OML:ASF E:\basketball\basketball\Project 1\Capture day 1\Session 1\Subject.ASF
:FULLY-SPECIFIED
:DEGREES
131
root 1.08394 14.5899 -5.26537 -304.803 67.5547 -314.277
lowerback 17.9299 -5.20759 -17.3883
upperback 4.54788 -9.54302 2.4689
thorax -1.55339 -4.84191 14.1284
lowerneck -6.5986 -6.32999 -16.8145
upperneck -9.0468 -6.68771 17.4305
head -0.284034 -3.01912 7.99239
rclavicle 8.90555e-014 8.74653e-015
rhumerus -22.9464 -31.1817 -66.0914
rradius 95.2521
rwrist -35.036
rhand -23.595 20.1736
rfingers 7.12502
rthumb 2.86849 -9.7869
lclavicle 8.90555e-014 8.74653e-015
lhumerus -44.5144 -18.3323 91.9513
lradius 77.9485
lwrist 9.79905
lhand -40.0017 22.3056
lfingers 7.12502
lthumb -12.9694 51.8825
rfemur -63.5077 -13.3697 32.9344
rtibia 82.119
rfoot -15.7526 -19.3765
rtoes 20.7205
lfemur 16.1623 -1.57544 -15.9775
ltibia 20.8426
lfoot 9.57608 9.88191
ltoes -37.6346
132
root 1.44809 14.625 -5.18239 -306.766 66.5548 -316.597
lowerback 15.7167 -5.69918 -14.8163
upperback 5.19777 -9.38448 1.21101
thorax -0.422771 -4.84137 10.8789
lowerneck -6.25214 -5.88127 -14.7008
upperneck -9.67075 -6.20126 16.4505
head -0.720722 -2.83993 7.36618
rclavicle 1.12115e-013 -2.42517e-014
rhumerus -20.9297 -31.3136 -69.9629
rradius 98.0695
rwrist -30.0224
rhand -23.4016 19.678
rfingers 7.12502
rthumb 3.05528 -10.2798
lclavicle 1.12115e-013 -2.42517e-014
lhumerus -47.0394 -20.9804 91.9421
lradius 76.4704
lwrist 11.2233
lhand -39.2257 23.4265
lfingers 7.12502
lthumb -12.2213 53.0494
rfemur -62.4245 -13.6814 32.7487
rtibia 81.9357
rfoot -14.7028 -20.2802
rtoes 16.6716
lfemur 15.4992 -1.07764 -16.7829
ltibia 24.1492
lfoot 9.19925 8.37568
ltoes -37.113
133
root 1.8059 14.6415 -5.10583 -308.401 65.5819 -318.505
lowerback 15.0646 -5.75954 -14.2177
upperback 4.96492 -9.31137 1.74859
thorax -0.361946 -4.81476 11.0646
lowerneck -5.94581 -5.24558 -14.6353
upperneck -9.99059 -5.4452 14.5698
head -1.07781 -2.44586 6.80312
rclavicle 6.12257e-014 -3.81667e-014
rhumerus -18.5096 -29.2901 -71.1192
rradius 100.592
rwrist -25.3095
rhand -22.6557 19.2062
rfingers 7.12502
rthumb 3.77554 -10.7401
lclavicle 6.12257e-014 -3.81667e-014
lhumerus -50.2141 -20.7738 95.0749
lradius 74.6494
lwrist 12.4373
lhand -38.7102 22.0367
lfingers 7.12502
lthumb -11.7242 51.6886
rfemur -60.9553 -14.0295 32.2968
rtibia 82.0083
rfoot -16.1452 -19.5526
rtoes 21.4139
lfemur 14.4854 -0.373297 -17.4752
ltibia 28.1061
lfoot 8.83829 6.42225
ltoes -36.1196
134
root 2.16006 14.6479 -5.027 -310.358 64.3736 -320.82
lowerback 14.3728 -5.74226 -13.9174
upperback 4.77208 -9.17107 2.3941
thorax -0.178675 -4.7736 11.5202
lowerneck -6.87981 -4.78432 -14.2214
upperneck -9.58399 -4.83674 12.6642
head -0.994643 -2.09556 6.12337
rclavicle 1.19271e-015 4.21423e-014
rhumerus -15.6604 -26.7578 -72.3575
rradius 102.681
rwrist -20.4343
rhand -21.4731 18.7684
rfingers 7.12502
rthumb 4.91753 -11.1546
lclavicle 1.19271e-015 4.21423e-014
lhumerus -53.1304 -19.7877 98.2057
lradius 72.5738
lwrist 13.8443
lhand -37.5071 22.6825
lfingers 7.12502
lthumb -10.5638 52.397
rfemur -59.3471 -14.0584 31.779
rtibia 81.9142
rfoot -16.7885 -19.0694
rtoes 22.6526
lfemur 13.1654 0.814352 -18.0836
ltibia 32.5464
lfoot 8.98456 4.36079
ltoes -33.3755
135
root 2.50913 14.648 -4.9375 -312.817 63.01 -323.692
lowerback 13.4737 -5.43672 -13.1928
upperback 4.91279 -8.55044 2.6267
thorax 0.19351 -4.49848 11.205
lowerneck -7.70902 -4.52865 -13.0988
upperneck -9.63877 -4.51076 11.1659
head -1.0078 -1.92025 5.46386
rclavicle 3.02153e-014 -4.29375e-014
rhumerus -12.8364 -24.8331 -74.0354
rradius 104.475
rwrist -15.4033
rhand -20.7642 18.418
rfingers 7.12502
rthumb 5.60203 -11.4879
lclavicle 3.02153e-014 -4.29375e-014
lhumerus -55.4918 -19.5663 100.626
lradius 70.0714
lwrist 15.581
lhand -36.3551 23.6306
lfingers 7.12502
lthumb -9.45239 53.3986
rfemur -57.4541 -13.7704 31.3756
rtibia 81.5343
rfoot -16.4863 -18.8534
rtoes 20.4754
lfemur 11.6682 2.31132 -18.4783
ltibia 37.375
lfoot 8.02342 2.09232
ltoes -33.2662
136
root 2.85235 14.6432 -4.84198 -314.979 61.5974 -326.185
lowerback 12.8361 -5.18815 -12.6593
upperback 5.00031 -8.07699 2.8754
thorax 0.452107 -4.28538 11.0672
lowerneck -7.56081 -4.07662 -12.628
upperneck -10.1448 -3.97383 10.0791
head -1.29331 -1.64805 5.07688
rclavicle -1.66979e-013 -1.27222e-014
rhumerus -10.1079 -22.0477 -75.6028
rradius 105.944
rwrist -10.3414
rhand -20.2608 18.0202
rfingers 7.12502
rthumb 6.08805 -11.8723
lclavicle -1.66979e-013 -1.27222e-014
lhumerus -57.6279 -18.5534 102.816
lradius 67.2689
lwrist 17.7326
lhand -34.8932 23.7398
lfingers 7.12502
lthumb -8.04169 53.5668
rfemur -55.2546 -13.4477 30.7766
rtibia 80.8485
rfoot -15.8645 -18.5627
rtoes 17.2695
lfemur 10.0595 3.66957 -18.913
ltibia 42.4302
lfoot 7.38927 -0.0786617
ltoes -32.2815
137
root 3.19379 14.6301 -4.75077 -316.972 60.1158 -328.403
lowerback 12.2936 -4.93227 -12.0237
upperback 5.20573 -7.5927 2.96281
thorax 0.74868 -4.06352 10.6999
lowerneck -7.5553 -3.65495 -12.1028
upperneck -10.6137 -3.44923 9.37469
head -1.52254 -1.38384 4.79389
rclavicle -1.51076e-014 -2.14687e-014
rhumerus -7.50463 -18.9252 -77.1728
rradius 107.118
rwrist -5.03709
rhand -19.6926 17.5563
rfingers 7.12502
rthumb 6.63659 -12.3197
lclavicle -1.51076e-014 -2.14687e-014
lhumerus -59.5755 -17.5191 104.822
lradius 64.1221
lwrist 19.1798
lhand -33.5161 24.1202
lfingers 7.12502
lthumb -6.71247 53.9938
rfemur -52.7382 -13.1094 29.9162
rtibia 79.8841
rfoot -17.1812 -16.345
rtoes 8.36386
lfemur 8.40197 5.02186 -19.3797
ltibia 47.6771
lfoot 7.28181 -2.08458
ltoes -29.189
138
root 3.53648 14.6148 -4.65776 -319.192 58.7601 -330.788
lowerback 12.1799 -4.56495 -11.5344
upperback 5.32364 -7.02948 3.44488
thorax 0.784978 -3.79171 10.9078
lowerneck -7.42863 -3.33454 -11.7057
upperneck -11.4392 -3.07014 8.46955
head -1.86032 -1.17888 4.47207
rclavicle -4.77083e-014 3.65764e-014
rhumerus -5.1451 -15.1392 -77.7568
rradius 107.969
rwrist 0.17267
rhand -19.5196 17.233
rfingers 7.12502
rthumb 6.80359 -12.6377
lclavicle -4.77083e-014 3.65764e-014
lhumerus -61.1839 -15.7876 107.046
lradius 60.6161
lwrist 19.9433
lhand -32.1279 24.8005
lfingers 7.12502
lthumb -5.37227 54.7124
rfemur -49.7884 -12.7519 29.1464
rtibia 78.6178
rfoot -18.6412 -14.1092
rtoes 0.757227
lfemur 6.6425 6.30703 -19.5383
ltibia 53.0819
lfoot 6.8157 -2.33856
ltoes -26.9691
139
root 3.87603 14.6023 -4.55414 -321.263 57.6081 -333.158
lowerback 11.9927 -4.26274 -10.7757
upperback 5.51118 -6.51265 3.89913
thorax 0.908506 -3.54181 10.9178
lowerneck -7.75211 -2.95516 -12.2194
upperneck -11.5976 -2.49097 8.23641
head -1.91688 -0.850745 4.49344
rclavicle -6.36111e-015 -2.38542e-014
rhumerus -2.90519 -10.9934 -78.0604
rradius 108.527
rwrist 5.03212
rhand -19.7219 17.1451
rfingers 7.12502
rthumb 6.60825 -12.7318
lclavicle -6.36111e-015 -2.38542e-014
lhumerus -62.4085 -13.8394 108.718
lradius 56.9486
lwrist 19.9773
lhand -30.3427 25.8958
lfingers 7.12502
lthumb -3.64845 55.8443
rfemur -46.794 -12.4263 28.6594
rtibia 77.1225
rfoot -20.2824 -12.4911
rtoes -4.9398
lfemur 4.47292 7.41691 -19.3844
ltibia 58.619
lfoot 6.55229 -1.21766
ltoes -23.7407
